{"title":"Big Game 2014 720p WEB-DL XviD AC3-RARBG","uid":12064403,"size":2720679463,"categoryP":"video","categoryS":"hd___movies","magnet":"?xt=urn:btih:f538dd628a6889747b51394dd30f505993cb7a93&amp;dn=Big+Game+2014+720p+WEB-DL+XviD+AC3-RARBG&amp;tr=udp%3A%2F%2Ftracker.openbittorrent.com%3A80&amp;tr=udp%3A%2F%2Fopen.demonii.com%3A1337&amp;tr=udp%3A%2F%2Ftracker.coppersurfer.tk%3A6969&amp;tr=udp%3A%2F%2Fexodus.desync.com%3A6969","seeders":0,"leechers":3,"uploader":"SFS27","files":5,"time":1435353676,"description":"Summary:\nA young teenager camping in the woods helps rescue the President of the United States when Air Force One is shot down near his campsite.\n\nCover: &lt;a href=&quot;\nhttp://imgthat.com/img/img-558da5091d836.html&quot; rel=&quot;nofollow&quot; target=&quot;_NEW&quot;&gt;\nhttp://imgthat.com/img/img-558da5091d836.html&lt;/a&gt;\n\nScreens: &lt;a href=&quot;\nhttp://imgthat.com/img/img-558da5394e04d.html&quot; rel=&quot;nofollow&quot; target=&quot;_NEW&quot;&gt;\nhttp://imgthat.com/img/img-558da5394e04d.html&lt;/a&gt; &lt;a href=&quot;\nhttp://imgthat.com/img/img-558da5534f342.html&quot; rel=&quot;nofollow&quot; target=&quot;_NEW&quot;&gt;\nhttp://imgthat.com/img/img-558da5534f342.html&lt;/a&gt; &lt;a href=&quot;\nhttp://imgthat.com/img/img-558da56e06ec0.html&quot; rel=&quot;nofollow&quot; target=&quot;_NEW&quot;&gt;\nhttp://imgthat.com/img/img-558da56e06ec0.html&lt;/a&gt; &lt;a href=&quot;\nhttp://imgthat.com/img/img-558da58730307.html&quot; rel=&quot;nofollow&quot; target=&quot;_NEW&quot;&gt;\nhttp://imgthat.com/img/img-558da58730307.html&lt;/a&gt; &lt;a href=&quot;\nhttp://imgthat.com/img/img-558da5b11992c.html&quot; rel=&quot;nofollow&quot; target=&quot;_NEW&quot;&gt;\nhttp://imgthat.com/img/img-558da5b11992c.html&lt;/a&gt;\n\nMediainfo :\n\nVideo\nID : 0\nFormat : MPEG-4 Visual\nFormat profile : Simple@L5\nFormat settings, BVOP : No\nFormat settings, QPel : No\nFormat settings, GMC : No warppoints\nFormat settings, Matrix : Default (H.263)\nCodec ID : XVID\nCodec ID/Hint : XviD\nDuration : 1h 26mn\nBit rate : 3 785 Kbps\nWidth : 1 280 pixels\nHeight : 718 pixels\nDisplay aspect ratio : 16:9\nFrame rate : 23.976 fps\nColor space : YUV\nChroma subsampling : 4:2:0\nBit depth : 8 bits\nScan type : Progressive\nCompression mode : Lossy\nBits/(Pixel*Frame) : 0.172\nStream size : 2.29 GiB (91%)\nWriting library : Lavc56.13.100\n\nAudio\nID : 1\nFormat : AC-3\nFormat/Info : Audio Coding 3\nMode extension : CM (complete main)\nFormat settings, Endianness : Big\nCodec ID : 2000\nDuration : 1h 26mn\nBit rate mode : Constant\nBit rate : 384 Kbps\nChannel(s) : 6 channels\nChannel positions : Front: L C R, Side: L R, LFE\nSampling rate : 48.0 KHz\nBit depth : 16 bits\nCompression mode : Lossy\nStream size : 238 MiB (9%)\nAlignment : Aligned on interleaves\nInterleave, duration : 42 ms (1.00 video frame)\nInterleave, preload duration : 512 ms","torrent":{"xt":"urn:btih:f538dd628a6889747b51394dd30f505993cb7a93","amp;dn":"Big+Game+2014+720p+WEB-DL+XviD+AC3-RARBG","amp;tr":["udp%3A%2F%2Ftracker.openbittorrent.com%3A80","udp%3A%2F%2Fopen.demonii.com%3A1337","udp%3A%2F%2Ftracker.coppersurfer.tk%3A6969","udp%3A%2F%2Fexodus.desync.com%3A6969"],"infoHash":"f538dd628a6889747b51394dd30f505993cb7a93","infoHashBuffer":{"type":"Buffer","data":[245,56,221,98,138,104,137,116,123,81,57,77,211,15,80,89,147,203,122,147]},"announce":[],"urlList":[]}}